<svg xmlns="http://www.w3.org/2000/svg" xmlns:xlink="http://www.w3.org/1999/xlink" width="1080" zoomAndPan="magnify" viewBox="0 0 810 1439.999935" height="1920" preserveAspectRatio="xMidYMid meet" version="1.2"><g id="1950785817"><path style=" stroke:none;fill-rule:nonzero;fill:#b4b4b4;fill-opacity:1;" d="M 1057.214844 871.082031 L 1057.214844 0.0429688 L -164.535156 0.0429688 C -109.722656 132.90625 51.3125 279.269531 214.875 343.890625 C 394.128906 414.714844 478.394531 348.648438 596.226562 441.445312 C 756.355469 567.546875 684.851562 755.804688 831.246094 844.96875 C 897.453125 885.292969 979.566406 887.894531 1057.214844 871.082031 Z M 1057.214844 871.082031 "/><path style=" stroke:none;fill-rule:nonzero;fill:#a6a6a6;fill-opacity:1;" d="M 5.707031 0.0429688 C 81.015625 104.699219 207.039062 204.808594 334.601562 255.203125 C 513.855469 326.03125 598.121094 259.976562 715.953125 352.757812 C 876.082031 478.859375 804.578125 667.117188 950.972656 756.28125 C 983.371094 776.007812 1019.582031 786.722656 1057.214844 790.539062 L 1057.214844 0.0429688 Z M 5.707031 0.0429688 "/><path style=" stroke:none;fill-rule:nonzero;fill:#737373;fill-opacity:1;" d="M 202.433594 0.0429688 C 273.875 69.839844 363.71875 130.734375 454.328125 166.53125 C 633.582031 237.359375 717.847656 171.289062 835.683594 264.085938 C 990.652344 386.125 928.679688 566.375 1057.214844 658.695312 L 1057.214844 0.0429688 Z M 202.433594 0.0429688 "/><path style=" stroke:none;fill-rule:nonzero;fill:#545454;fill-opacity:1;" d="M 1057.214844 0.0429688 L 430.140625 0.0429688 C 476.007812 31.640625 524.925781 58.429688 574.054688 77.84375 C 753.308594 148.671875 837.574219 82.617188 955.410156 175.402344 C 1010.976562 219.160156 1038.660156 270.414062 1057.214844 322.410156 Z M 1057.214844 0.0429688 "/></g></svg>